PathFileType	4	(X/Y/Z)	C:/Users/beibeiliu/ov580/test_trc/User3\sequence.9_training_dense_right.trc
DataRate	CameraRate	NumFrames	NumMarkers	Units	OrigDataRate	OrigDataStartFrame	OrigNumFrames
120	120	14	19	mm	120	52	153
Frame#	Time	ThumbCMC			ThumbMCP			ThumbIP			ThumbTip			IndexMCP			IndexPIP			IndexTip			MiddleMCP			MiddlePIP			MiddleTip			RingMCP			RingPIP			RingTip			PinkyMCP			PinkyPIP			PinkyTip			BackHand1			BackHand2			BackHand3	
		X0	Y0	Z0	X1	Y1	Z1	X2	Y2	Z2	X3	Y3	Z3	X4	Y4	Z4	X5	Y5	Z5	X6	Y6	Z6	X7	Y7	Z7	X8	Y8	Z8	X9	Y9	Z9	X10	Y10	Z10	X11	Y11	Z11	X12	Y12	Z12	X13	Y13	Z13	X14	Y14	Z14	X15	Y15	Z15	X16	Y16	Z16	X17	Y17	Z17	X18	Y18	Z18	
51	0.425	66.2976	-37.8217	6.10448	50.7298	-43.045	-22.8026	37.2521	-48.3543	-44.2998	29.0315	-54.425	-67.6727	92.4935	-20.2352	-64.7316	83.8123	-18.5577	-92.8587	69.2716	-27.1434	-118.233	118.798	-32.6083	-69.4358	117.6	-35.4782	-100.619	106.735	-53.6705	-132.347	125.371	-63.4223	-65.7179	106.762	-83.5533	-85.7082	88.3939	-108.389	-75.6229	131.15	-79.2817	-54.7015	116.183	-99.347	-60.6673	91.2925	-102.775	-38.7204	133.18	-41.6584	-15.8233	135.43	-46.2483	16.5596	105.379	-24.3359	1.57868	
52	0.433333	66.6067	-36.4509	4.0944	47.7122	-43.1102	-21.4214	37.1585	-48.4304	-46.6928	26.4943	-54.1434	-65.9131	91.004	-19.8715	-69.4979	79.2006	-17.0303	-96.4605	71.095	-30.5969	-122.133	120.132	-31.8663	-73.0206	115.311	-34.3522	-101.739	109.014	-54.9086	-130.951	121.272	-61.4173	-69.0408	108.268	-82.25	-85.2322	87.266	-107.247	-76.8551	130.591	-77.4414	-53.8609	112.25	-96.7996	-62.4773	91.279	-101.94	-41.8139	134.526	-42.338	-14.5951	130.319	-44.2186	18.6078	105.734	-26.5376	0.573981	
53	0.441667	66.5778	-36.0837	4.58617	46.0696	-41.5776	-20.1593	34.144	-47.2953	-43.4295	25.453	-53.8415	-69.2209	90.5693	-19.1825	-66.0452	83.3941	-17.3252	-93.5127	73.1989	-27.9632	-118.157	116.418	-29.4961	-71.3945	116.94	-35.3329	-105.401	109.187	-53.0935	-130.501	122.5	-61.9156	-69.7918	109.76	-81.5697	-85.2754	83.6395	-103.225	-77.7787	131.962	-77.8988	-52.8566	115.095	-98.2491	-61.3064	90.9484	-100.92	-44.409	133.635	-40.7677	-12.1958	131.037	-42.5564	17.0508	103.584	-21.9602	0.145529	
54	0.45	68.847	-36.5696	5.00467	50.0307	-42.2014	-18.3766	34.5709	-45.3187	-45.7394	26.0054	-52.7323	-63.703	91.085	-16.9154	-69.6789	80.1048	-15.285	-97.5604	71.1987	-24.8647	-118.29	117.3	-28.4897	-73.1126	115.555	-33.8462	-105.444	105.157	-48.4914	-129.899	118.964	-59.0884	-69.3471	109.789	-81.0773	-84.4876	86.9405	-101.784	-78.5901	129.508	-76.9105	-56.0184	110.354	-95.3305	-61.1929	88.9369	-100.076	-37.9475	130.532	-38.8676	-15.3023	131.873	-42.6548	17.6062	103.968	-20.2952	-2.09977	
55	0.458333	69.0825	-36.6752	4.85377	50.4129	-41.4221	-21.2272	33.7787	-45.6171	-42.2327	27.0569	-53.4009	-66.4763	88.2974	-15.9804	-66.6787	81.4273	-15.4601	-94.7345	71.2443	-23.5227	-116.541	117.015	-28.6178	-71.0622	114.975	-32.3485	-101.712	105.692	-51.4136	-131.309	122.108	-59.1793	-65.3062	103.5	-78.7708	-85.0729	86.9267	-104.286	-76.2928	129.525	-74.5075	-52.6852	110.844	-96.6908	-60.0883	88.8417	-98.1871	-41.4247	132.349	-38.3964	-14.357	130.551	-42.7801	18.8454	101.076	-19.9565	-0.313583	
56	0.466667	68.4194	-35.7393	5.09357	48.3266	-42.0668	-20.1112	35.1338	-45.3795	-44.2982	25.7061	-52.4006	-65.0204	90.1197	-16.7432	-66.7061	79.7396	-13.5541	-90.9052	68.7512	-23.3911	-117.586	116.705	-28.3894	-69.4671	116.598	-32.7307	-98.601	105.198	-49.0616	-128.528	119.01	-56.4204	-64.4925	108.274	-80.5187	-83.8639	88.558	-102.887	-75.2338	127.878	-73.0812	-52.9973	112.14	-96.1708	-60.5304	92.1575	-100.467	-38.0162	131.998	-40.3767	-11.0058	130.684	-41.4889	18.781	103.696	-22.2694	0.356946	
57	0.475	66.7462	-35.1323	6.13223	46.9629	-39.92	-22.1428	31.0598	-43.792	-47.3334	26.6638	-51.7743	-63.1332	87.7361	-14.9993	-64.1059	80.8006	-13.0455	-93.3295	69.4877	-24.915	-118.032	117.799	-29.4081	-69.8578	115.17	-31.6753	-102.365	106.468	-49.1552	-128.174	121.161	-58.1078	-64.1888	107.908	-78.002	-83.9597	83.4232	-99.5463	-76.3333	130.251	-76.022	-54.7714	110.602	-91.63	-62.5862	87.8525	-98.2455	-39.0854	128.985	-37.2428	-11.1462	130.654	-41.4624	15.9443	103.817	-22.0049	0.558985	
58	0.483333	67.5123	-34.1703	3.67192	46.4932	-40.2511	-18.2759	30.0017	-42.4713	-41.9477	25.902	-51.7403	-64.9734	89.1204	-16.3191	-64.576	77.2006	-11.8925	-94.0558	67.1802	-22.6593	-116.381	116.679	-28.6344	-68.1781	117.087	-33.4757	-102.941	102.671	-48.3937	-131.586	117.572	-54.9723	-65.3939	107.026	-80.364	-82.81	85.3124	-99.4025	-76.6871	130.119	-75.2209	-53.1029	110.712	-93.6614	-61.8003	88.8221	-100.464	-41.3583	130.577	-40.5305	-10.1266	130.395	-41.8779	21.1176	103.314	-21.2508	2.68714	
59	0.491667	68.4385	-35.4698	5.03198	44.7216	-38.9174	-18.0018	35.2975	-45.0604	-45.1305	25.8035	-52.112	-63.0827	86.3124	-14.8499	-63.6891	79.8445	-13.5356	-92.0946	70.8144	-24.3203	-117.489	117.137	-28.7164	-71.6775	116.165	-32.4562	-102.233	105.941	-47.6038	-128.483	120.625	-57.8932	-66.016	108.058	-80.3486	-83.7016	87.5606	-102.042	-75.7256	131.354	-75.2681	-51.1183	113.158	-95.1657	-61.1194	91.2812	-98.4535	-43.1958	129.837	-39.4926	-14.6829	130.641	-41.5257	20.5755	104.786	-21.5353	3.5044	
60	0.5	65.8955	-35.8809	7.85457	50.3581	-42.579	-18.2273	33.4744	-45.4822	-42.6619	23.4543	-52.8158	-64.0553	89.9852	-16.3075	-66.2934	77.7843	-15.0199	-94.8872	66.9649	-24.6018	-118.55	116.003	-28.7778	-67.4975	113.676	-31.2926	-99.3843	106.71	-53.358	-131.194	121.184	-60.8008	-68.0722	108.567	-80.9344	-82.3179	87.0693	-104.243	-74.5911	132.17	-77.8924	-50.4303	109.176	-93.1348	-60.9547	92.9553	-102.973	-41.0033	132.933	-40.8505	-12.526	132.221	-42.7584	19.433	105.466	-22.0939	0.286451	
61	0.508333	68.0939	-37.8445	4.58484	46.4656	-43.605	-15.8043	32.1331	-47.226	-42.9915	28.6694	-55.4589	-62.9086	89.1975	-18.9415	-61.2196	82.391	-18.2736	-93.9745	68.6185	-25.6783	-114.333	119.417	-33.9956	-66.3949	114.968	-34.0358	-100.854	105.228	-51.7487	-128.453	119.997	-59.6111	-65.3019	110.091	-79.2931	-83.0019	89.8019	-104.759	-76.3083	130.163	-77.3521	-53.0887	115.082	-96.6605	-60.1761	89.3253	-101.512	-38.4856	132.761	-43.7973	-12.9407	132.643	-44.8753	18.9373	102.859	-23.0782	2.0708	
62	0.516667	67.2571	-37.8155	6.04235	49.1508	-45.2291	-17.476	34.2139	-48.0034	-46.3642	26.8965	-54.9756	-64.4145	91.8574	-21.5693	-62.0583	84.3245	-19.3395	-90.272	68.7168	-27.0007	-115.933	120.564	-32.4475	-71.2771	115.723	-35.2094	-99.5273	107.749	-56.0243	-129.414	123.385	-62.2048	-63.0091	106.767	-82.2744	-84.0277	86.4978	-107.788	-74.31	133.877	-80.0706	-49.9028	112.358	-97.3585	-59.8848	90.3253	-100.041	-39.0526	131.851	-43.4972	-9.52323	134.011	-46.129	21.8438	104.238	-26.3853	0.883047	
63	0.525	65.7274	-38.0418	4.29329	48.5189	-44.9344	-19.3009	32.5722	-47.3795	-44.3093	24.431	-55.3307	-67.1721	91.34	-21.7312	-63.4965	77.6857	-16.3448	-92.7295	70.7024	-29.6862	-117.381	118.791	-33.9792	-68.8502	116.326	-35.7612	-97.3899	108.132	-56.7179	-130.605	122.679	-62.7152	-62.3781	109.881	-83.5521	-81.6336	89.2211	-105.909	-74.785	132.22	-79.9584	-49.758	113.5	-94.9143	-60.3661	91.1642	-102.756	-39.6943	132.489	-42.1359	-12.8477	131.02	-45.7782	21.9186	101.153	-25.3034	0.776429	
64	0.533333	65.5055	-37.8352	9.47727	44.8754	-42.1675	-20.6848	29.7157	-46.6998	-41.4439	24.3138	-54.1367	-66.2732	86.1034	-17.6797	-61.4284	75.593	-15.5829	-94.5522	68.1666	-27.0746	-117.713	113.554	-29.7034	-69.8486	115.176	-35.8212	-99.5341	103.206	-50.8832	-129.013	119.414	-60.5274	-64.0351	105.786	-85.5487	-83.6075	85.7168	-102.821	-76.646	128.158	-77.0196	-51.8113	109.022	-96.0734	-60.2812	90.0694	-103.006	-38.5482	131.227	-42.4262	-13.9425	130.697	-44.1352	20.0063	101.642	-25.1481	2.526	
